<svg width="13" height="24" viewBox="0 0 13 24" fill="none" xmlns="http://www.w3.org/2000/svg">
<path d="M12.1125 0.0049936L9.20066 0C5.92933 0 3.81525 2.31828 3.81525 5.90643V8.62969H0.887543C0.634555 8.62969 0.429688 8.84891 0.429688 9.11932V13.065C0.429688 13.3354 0.634788 13.5544 0.887543 13.5544H3.81525V23.5106C3.81525 23.781 4.02012 24 4.27311 24H8.09293C8.34592 24 8.55079 23.7808 8.55079 23.5106V13.5544H11.974C12.2269 13.5544 12.4318 13.3354 12.4318 13.065L12.4332 9.11932C12.4332 8.98948 12.3849 8.86514 12.2991 8.77326C12.2134 8.68138 12.0966 8.62969 11.9751 8.62969H8.55079V6.32115C8.55079 5.21157 8.79817 4.64829 10.1505 4.64829L12.112 4.64755C12.3648 4.64755 12.5696 4.42833 12.5696 4.15817V0.494367C12.5696 0.224462 12.365 0.00549296 12.1125 0.0049936Z" fill="white"/>
</svg>
