<svg width="26" height="26" viewBox="0 0 26 26" fill="none" xmlns="http://www.w3.org/2000/svg">
<path d="M25.8483 7.64407C25.7877 6.26259 25.5654 5.31284 25.2469 4.48986C24.9184 3.61629 24.413 2.83419 23.7508 2.18402C23.1038 1.52374 22.3203 1.01066 21.4611 0.685681C20.6374 0.365657 19.6972 0.142255 18.3225 0.0813452C16.9375 0.015277 16.4978 0 12.985 0C9.47224 0 9.03256 0.015277 7.65268 0.0761868C6.27794 0.137096 5.33282 0.360697 4.51405 0.680522C3.64455 1.01066 2.86626 1.51858 2.21926 2.18402C1.5622 2.83419 1.05183 3.62145 0.728234 4.4849C0.409772 5.31284 0.187459 6.25743 0.126847 7.63891C0.0611009 9.03071 0.0458984 9.47255 0.0458984 13.0025C0.0458984 16.5325 0.0611009 16.9744 0.121714 18.361C0.182326 19.7425 0.404836 20.6922 0.723299 21.5152C1.05183 22.3888 1.5622 23.1709 2.21926 23.8211C2.86626 24.4813 3.64968 24.9944 4.50892 25.3194C5.33282 25.6394 6.27281 25.8628 7.64775 25.9237C9.02742 25.9848 9.46731 25.9999 12.9801 25.9999C16.4928 25.9999 16.9325 25.9848 18.3124 25.9237C19.6871 25.8628 20.6323 25.6394 21.451 25.3194C23.1898 24.6438 24.5646 23.2624 25.2369 21.5152C25.5551 20.6873 25.7776 19.7425 25.8382 18.361C25.8989 16.9744 25.9141 16.5325 25.9141 13.0025C25.9141 9.47255 25.9089 9.03071 25.8483 7.64407ZM23.5184 18.2594C23.4627 19.5292 23.2505 20.2149 23.0736 20.672C22.6388 21.8047 21.7442 22.7037 20.6171 23.1405C20.1622 23.3183 19.4749 23.5316 18.2163 23.5873C16.8516 23.6484 16.4423 23.6635 12.9901 23.6635C9.53799 23.6635 9.12357 23.6484 7.76384 23.5873C6.50025 23.5316 5.81792 23.3183 5.36303 23.1405C4.80211 22.9322 4.29154 22.6021 3.87713 22.1703C3.44751 21.7487 3.11898 21.2408 2.91167 20.6772C2.73477 20.22 2.52253 19.5292 2.46705 18.2646C2.40624 16.8932 2.39123 16.4817 2.39123 13.0127C2.39123 9.54358 2.40624 9.12713 2.46705 7.76093C2.52253 6.49115 2.73477 5.80547 2.91167 5.34835C3.11898 4.78449 3.44751 4.27162 3.88226 3.85497C4.30161 3.42325 4.80705 3.0931 5.36816 2.88498C5.82305 2.70721 6.51052 2.49393 7.76897 2.43798C9.13364 2.37707 9.54312 2.36179 12.9951 2.36179C16.4524 2.36179 16.8617 2.37707 18.2214 2.43798C19.485 2.49393 20.1673 2.70721 20.6222 2.88498C21.1831 3.0931 21.6937 3.42325 22.1081 3.85497C22.5377 4.27658 22.8662 4.78449 23.0736 5.34835C23.2505 5.80547 23.4627 6.49611 23.5184 7.76093C23.579 9.13229 23.5942 9.54358 23.5942 13.0127C23.5942 16.4817 23.579 16.8881 23.5184 18.2594Z" fill="white"/>
<path d="M12.9843 6.32349C9.31502 6.32349 6.33789 9.31501 6.33789 13.0025C6.33789 16.69 9.31502 19.6816 12.9843 19.6816C16.6539 19.6816 19.6308 16.69 19.6308 13.0025C19.6308 9.31501 16.6539 6.32349 12.9843 6.32349ZM12.9843 17.3351C10.6039 17.3351 8.67296 15.3949 8.67296 13.0025C8.67296 10.6102 10.6039 8.67 12.9843 8.67C15.365 8.67 17.2957 10.6102 17.2957 13.0025C17.2957 15.3949 15.365 17.3351 12.9843 17.3351Z" fill="white"/>
<path d="M21.4453 6.05943C21.4453 6.9205 20.7505 7.61868 19.8934 7.61868C19.0366 7.61868 18.3418 6.9205 18.3418 6.05943C18.3418 5.19816 19.0366 4.50018 19.8934 4.50018C20.7505 4.50018 21.4453 5.19816 21.4453 6.05943Z" fill="white"/>
</svg>
