<svg width="26" height="24" viewBox="0 0 26 24" fill="none" xmlns="http://www.w3.org/2000/svg">
<path d="M0.459237 11.515L6.45016 13.8516L8.76901 21.6446C8.91739 22.1437 9.50143 22.3281 9.88909 21.9969L13.2285 19.1521C13.5786 18.854 14.0772 18.8392 14.443 19.1167L20.4662 23.6864C20.8809 24.0013 21.4684 23.7639 21.5724 23.2402L25.9847 1.06143C26.0982 0.489414 25.5603 0.0122215 25.0391 0.222878L0.452217 10.1345C-0.154537 10.379 -0.14925 11.2767 0.459237 11.515ZM8.3953 12.6078L20.1038 5.07205C20.3142 4.93702 20.5307 5.23435 20.35 5.4095L10.6871 14.7958C10.3475 15.1262 10.1284 15.5683 10.0663 16.0482L9.73716 18.5973C9.69357 18.9376 9.23606 18.9714 9.14618 18.642L7.88024 13.9937C7.73525 13.4635 7.94655 12.8972 8.3953 12.6078Z" fill="white"/>
</svg>
